<?xml version="1.0" standalone="no"?>
<!DOCTYPE svg PUBLIC "-//W3C//DTD SVG 1.1//EN"
  "http://www.w3.org/Graphics/SVG/1.1/DTD/svg11.dtd">
<svg width="100mm" height="100mm" viewBox="0 0 100 100" version="1.1" xmlns="http://www.w3.org/2000/svg">
<defs>
	<style type="text/css"><![CDATA[
	]]></style>
</defs>
	<line x1="0" y1="100" x2="10" y2="100"   style="opacity:1;stroke:#000;"  />
	<text x="15" y="101.5"   style="font-size:5px;"  >0</text>
	<line x1="0" y1="90" x2="10" y2="90"   style="opacity:1;stroke:#000;"  />
	<text x="15" y="91.5"   style="font-size:5px;"  >10</text>
	<line x1="0" y1="80" x2="10" y2="80"   style="opacity:1;stroke:#000;"  />
	<text x="15" y="81.5"   style="font-size:5px;"  >20</text>
	<line x1="0" y1="70" x2="10" y2="70"   style="opacity:1;stroke:#000;"  />
	<text x="15" y="71.5"   style="font-size:5px;"  >30</text>
	<line x1="0" y1="60" x2="10" y2="60"   style="opacity:1;stroke:#000;"  />
	<text x="15" y="61.5"   style="font-size:5px;"  >40</text>
	<line x1="0" y1="50" x2="10" y2="50"   style="opacity:1;stroke:#000;"  />
	<text x="15" y="51.5"   style="font-size:5px;"  >50</text>
	<line x1="0" y1="40" x2="10" y2="40"   style="opacity:1;stroke:#000;"  />
	<text x="15" y="41.5"   style="font-size:5px;"  >60</text>
	<line x1="0" y1="30" x2="10" y2="30"   style="opacity:1;stroke:#000;"  />
	<text x="15" y="31.5"   style="font-size:5px;"  >70</text>
	<line x1="0" y1="20" x2="10" y2="20"   style="opacity:1;stroke:#000;"  />
	<text x="15" y="21.5"   style="font-size:5px;"  >80</text>
	<line x1="0" y1="10" x2="10" y2="10"   style="opacity:1;stroke:#000;"  />
	<text x="15" y="11.5"   style="font-size:5px;"  >90</text>
	<line x1="0" y1="0" x2="10" y2="0"   style="opacity:1;stroke:#000;"  />
	<text x="15" y="1.5"   style="font-size:5px;"  >100</text>
	<line x1="0" y1="100" x2="0" y2="90"   style="opacity:1;stroke:#000;"  />
	<text x="1.5" y="85"   style="font-size:5px;" transform=" rotate(-90, 0, 85)" >0</text>
	<line x1="10" y1="100" x2="10" y2="90"   style="opacity:1;stroke:#000;"  />
	<text x="11.5" y="85"   style="font-size:5px;" transform=" rotate(-90, 10, 85)" >10</text>
	<line x1="20" y1="100" x2="20" y2="90"   style="opacity:1;stroke:#000;"  />
	<text x="21.5" y="85"   style="font-size:5px;" transform=" rotate(-90, 20, 85)" >20</text>
	<line x1="30" y1="100" x2="30" y2="90"   style="opacity:1;stroke:#000;"  />
	<text x="31.5" y="85"   style="font-size:5px;" transform=" rotate(-90, 30, 85)" >30</text>
	<line x1="40" y1="100" x2="40" y2="90"   style="opacity:1;stroke:#000;"  />
	<text x="41.5" y="85"   style="font-size:5px;" transform=" rotate(-90, 40, 85)" >40</text>
	<line x1="50" y1="100" x2="50" y2="90"   style="opacity:1;stroke:#000;"  />
	<text x="51.5" y="85"   style="font-size:5px;" transform=" rotate(-90, 50, 85)" >50</text>
	<line x1="60" y1="100" x2="60" y2="90"   style="opacity:1;stroke:#000;"  />
	<text x="61.5" y="85"   style="font-size:5px;" transform=" rotate(-90, 60, 85)" >60</text>
	<line x1="70" y1="100" x2="70" y2="90"   style="opacity:1;stroke:#000;"  />
	<text x="71.5" y="85"   style="font-size:5px;" transform=" rotate(-90, 70, 85)" >70</text>
	<line x1="80" y1="100" x2="80" y2="90"   style="opacity:1;stroke:#000;"  />
	<text x="81.5" y="85"   style="font-size:5px;" transform=" rotate(-90, 80, 85)" >80</text>
	<line x1="90" y1="100" x2="90" y2="90"   style="opacity:1;stroke:#000;"  />
	<text x="91.5" y="85"   style="font-size:5px;" transform=" rotate(-90, 90, 85)" >90</text>
	<line x1="100" y1="100" x2="100" y2="90"   style="opacity:1;stroke:#000;"  />
	<text x="101.5" y="85"   style="font-size:5px;" transform=" rotate(-90, 100, 85)" >100</text>
</svg>